<?xml version="1.0" encoding="utf-8"?>
<!-- Generator: Adobe Illustrator 18.0.0, SVG Export Plug-In . SVG Version: 6.00 Build 0)  -->
<!DOCTYPE svg PUBLIC "-//W3C//DTD SVG 1.1//EN" "http://www.w3.org/Graphics/SVG/1.1/DTD/svg11.dtd">
<svg version="1.1" id="Layer_1" xmlns="http://www.w3.org/2000/svg" xmlns:xlink="http://www.w3.org/1999/xlink" x="0px" y="0px"
	 viewBox="0 0 45 45" enable-background="new 0 0 45 45" xml:space="preserve">
<g id="Facebook">
	<g id="XMLID_1_">
		<circle id="XMLID_3_" fill="#FFFFFF" cx="22.5" cy="22.5" r="20"/>
		<path id="XMLID_2_" fill="#36609F" d="M22.5,0C10,0,0,10.1,0,22.5S10,45,22.5,45S45,35,45,22.5S34.9,0,22.5,0z M27.3,22.5h-3.1
			c0,5,0,11.3,0,11.3h-4.7c0,0,0-6.1,0-11.3h-2.3v-4h2.3V16c0-1.9,0.9-4.7,4.7-4.7h3.4v3.8c0,0-2.1,0-2.5,0s-1,0.2-1,1v2.3h3.5
			L27.3,22.5z"/>
	</g>
</g>
</svg>
